<svg width="25" height="33" viewBox="0 0 25 33" fill="none" xmlns="http://www.w3.org/2000/svg">
<rect y="12" width="25" height="21" fill="#D9D9D9"/>
<path d="M5.58909 12.4451L5.58913 7.3826C5.58913 6.79457 5.68372 6.21037 5.86926 5.65238L5.91232 5.5229C6.34408 4.22444 7.27442 3.15095 8.49831 2.539V2.539C9.21405 2.18113 10.0033 1.99481 10.8035 1.99481L13.0867 1.99481L14.8384 1.99481C15.6552 1.99481 16.4567 2.21681 17.1571 2.63706V2.63706C18.0796 3.19057 18.7737 4.05583 19.1139 5.07644L19.2817 5.58008C19.4837 6.18594 19.5866 6.82039 19.5866 7.45902L19.5866 12.4451" stroke="#D9D9D9" stroke-width="3"/>
<circle cx="13" cy="20" r="3" fill="black"/>
<rect x="12" y="21" width="2" height="7" rx="1" fill="black"/>
</svg>
